<svg width="112" height="106" viewBox="0 0 112 106" fill="none" xmlns="http://www.w3.org/2000/svg">
<g clip-path="url(#clip0_2090_157)">
<path d="M77.0568 75.9558V65.5346L76.9808 44.9542L56.076 34.6069L35.2515 44.8389L35.329 65.4193V75.8029L24.8013 70.5923L24.6844 39.607L56.038 24.202L87.507 39.7812L87.6239 70.764L77.0568 75.9558Z" fill="#2E4765"/>
<path d="M67.1079 70.4231V80.8443L56.2704 86.169L45.278 80.7278V70.3442L56.2324 75.7678L67.1079 70.4231Z" fill="#2E4765"/>
<path d="M66.9413 60.5258L56.1929 65.8078L45.4051 60.4669L45.3671 49.8452L56.1154 44.5657L66.9018 49.9053L66.9413 60.5258Z" fill="#2E4765"/>
<path d="M112 27.7447L94.2346 36.4741L56.0117 17.5541L17.932 36.2673L12.9466 33.7986V48.8778C14.8641 49.3139 16.276 50.8126 16.276 52.5946V60.4669H4.66824V52.5946C4.66824 50.8239 6.06257 49.3327 7.96115 48.8853V31.3312L0.102295 27.4402L55.9488 0L112 27.7447Z" fill="#2E4765"/>
<path d="M11.2979 103.08H4.62879L3.5253 105.816H0L6.0202 91.4409H9.9299L15.9501 105.816H12.4L11.2965 103.08H11.2979ZM10.3859 100.777L7.96263 94.7718L5.53935 100.777H10.3844H10.3859Z" fill="#2E4765"/>
<path d="M30.7499 94.4222V105.816H27.3679V104.376C26.9367 104.87 26.3725 105.257 25.6768 105.538C24.9811 105.818 24.2255 105.959 23.4099 105.959C22.3708 105.959 21.4514 105.771 20.652 105.393C19.8525 105.016 19.2255 104.461 18.7695 103.728C18.3135 102.995 18.0854 102.12 18.0854 101.106V94.4222H21.4441V100.694C21.4441 101.599 21.7087 102.296 22.2363 102.782C22.7639 103.268 23.483 103.513 24.395 103.513C25.3071 103.513 26.0495 103.269 26.5772 102.782C27.1048 102.296 27.3693 101.599 27.3693 100.694V94.4222H30.7514H30.7499Z" fill="#2E4765"/>
<path d="M37.9686 96.7869V102.298C37.9686 102.682 38.0768 102.96 38.2931 103.132C38.5094 103.303 38.8719 103.388 39.3849 103.388H40.9444V105.815H38.8339C36.0028 105.815 34.588 104.635 34.588 102.277V96.7856H33.0051V94.4209H34.588V91.6038H37.9701V94.4209H40.9444V96.7856H37.9701L37.9686 96.7869Z" fill="#2E4765"/>
<path d="M45.8128 105.271C44.7897 104.784 43.9859 104.095 43.4027 103.204C42.8195 102.313 42.5272 101.284 42.5272 100.119C42.5272 98.9535 42.8268 97.926 43.4261 97.0337C44.0253 96.1427 44.8453 95.4535 45.8844 94.9673C46.9236 94.4811 48.0826 94.2367 49.363 94.2367C50.6433 94.2367 51.8009 94.4798 52.8415 94.9673C53.8807 95.4548 54.7006 96.1427 55.2999 97.0337C55.8991 97.9247 56.1987 98.9535 56.1987 100.119C56.1987 101.284 55.8903 102.313 55.275 103.204C54.6597 104.095 53.8281 104.784 52.7801 105.271C51.7322 105.757 50.5615 106.001 49.2665 106.001C47.9716 106.001 46.8359 105.758 45.8128 105.271ZM50.9809 103.11C51.5159 102.857 51.9441 102.476 52.2642 101.969C52.5843 101.461 52.7436 100.845 52.7436 100.118C52.7436 99.035 52.4118 98.2017 51.7483 97.6189C51.0847 97.0362 50.2735 96.7455 49.3133 96.7455C48.353 96.7455 47.5506 97.0375 46.9032 97.6189C46.2557 98.2017 45.9312 99.035 45.9312 100.118C45.9312 101.2 46.2469 102.034 46.8783 102.616C47.5097 103.199 48.3048 103.49 49.2651 103.49C49.8731 103.49 50.4445 103.363 50.9795 103.109L50.9809 103.11Z" fill="#2E4765"/>
<path d="M63.7171 94.7718C64.4128 94.4297 65.2079 94.258 66.1038 94.258V97.2806H65.2166C64.1614 97.2806 63.3663 97.4936 62.8299 97.9184C62.2935 98.3433 62.026 99.0839 62.026 100.139V105.815H58.6674V94.4209H62.026V96.1891C62.4572 95.5863 63.0214 95.1126 63.7171 94.7705V94.7718Z" fill="#2E4765"/>
<path d="M68.5871 92.5813C68.1954 92.2592 67.9995 91.8582 67.9995 91.3783C67.9995 90.8983 68.1954 90.4973 68.5871 90.1752C68.9788 89.8532 69.4698 89.6915 70.0618 89.6915C70.6537 89.6915 71.1448 89.8532 71.5365 90.1752C71.9282 90.4973 72.1241 90.8983 72.1241 91.3783C72.1241 91.8582 71.9282 92.2592 71.5365 92.5813C71.1448 92.9033 70.6523 93.065 70.0618 93.065C69.4713 93.065 68.9788 92.9046 68.5871 92.5813ZM71.7163 94.4222V105.816H68.3576V94.4222H71.7163Z" fill="#2E4765"/>
<path d="M78.0974 103.45H84.0226V105.815H74.2842V103.491L80.0895 96.7869H74.309V94.4222H83.951V96.7455L78.0989 103.45H78.0974Z" fill="#2E4765"/>
<path d="M96.8772 103.08H90.2095L89.106 105.816H85.5807L91.6009 91.4409H95.5106L101.531 105.816H97.9806L96.8772 103.08ZM95.9666 100.777L93.5448 94.7718L91.1215 100.777H95.9666Z" fill="#2E4765"/>
<path d="M107.143 94.4222V105.816H103.785V94.4222H107.143Z" fill="#2E4765"/>
<path d="M111.575 88.0211L107.115 92.4033L106.259 93.2455C105.785 93.7104 104.963 93.758 104.42 93.3532L103.438 92.6189L101.461 91.1389C100.918 90.7329 100.863 90.0274 101.335 89.5625C101.809 89.0975 102.631 89.0499 103.174 89.4547L105.151 90.9347L109.61 86.5511C110.084 86.0862 110.908 86.0386 111.449 86.4434C111.991 86.8494 112.048 87.5549 111.575 88.0198V88.0211Z" fill="#2E4765"/>
</g>
<defs>
<clipPath id="clip0_2090_157">
<rect width="112" height="106" fill="white"/>
</clipPath>
</defs>
</svg>
