<svg width="1135" height="221" viewBox="0 0 1135 221" fill="none" xmlns="http://www.w3.org/2000/svg">
<g clip-path="url(#clip0_2085_167)">
<path d="M170.654 194.803V168.077L170.486 115.295L124.13 88.7568L77.9458 115L78.1224 167.785V194.411L54.7719 181.048L54.5112 101.582L124.042 62.0723L193.833 102.028L194.089 181.49L170.654 194.803Z" fill="#2E4765"/>
<path d="M148.594 180.615V207.341L124.559 221L100.182 207.045V180.415L124.475 194.32L148.594 180.615Z" fill="#2E4765"/>
<path d="M148.224 155.231L124.386 168.777L100.464 155.081L100.38 127.838L124.214 114.299L148.136 127.992L148.224 155.231Z" fill="#2E4765"/>
<path d="M248.146 71.1588L208.751 93.546L123.987 45.0203L39.5383 93.0125L28.483 86.6811V125.353C32.737 126.47 35.8644 130.313 35.8644 134.886V155.076H10.1263V134.886C10.1263 130.347 13.2201 126.52 17.4278 125.37V80.3454L0 70.3752L123.844 0L248.146 71.1588Z" fill="#2E4765"/>
<path d="M337.685 155.001H284.835L276.091 180.073H248.146L295.86 48.3091H326.849L374.563 180.073H346.429L337.685 155.001ZM330.46 133.89L311.258 78.845L292.056 133.89H330.455H330.46Z" fill="#2E4765"/>
<path d="M491.858 75.6438V180.077H465.052V166.881C461.63 171.403 457.162 174.959 451.651 177.53C446.136 180.106 440.15 181.394 433.685 181.394C425.446 181.394 418.157 179.669 411.823 176.209C405.484 172.754 400.511 167.664 396.9 160.941C393.289 154.218 391.482 146.207 391.482 136.907V75.6438H418.099V133.139C418.099 141.434 420.192 147.811 424.37 152.271C428.553 156.731 434.257 158.961 441.479 158.961C448.7 158.961 454.598 156.731 458.78 152.271C462.963 147.811 465.052 141.434 465.052 133.139V75.6438H491.858Z" fill="#2E4765"/>
<path d="M549.076 97.3224V147.84C549.076 151.358 549.933 153.905 551.644 155.472C553.355 157.044 556.235 157.827 560.295 157.827H572.653V180.073H555.924C533.489 180.073 522.274 169.265 522.274 147.649V97.3182H509.727V75.6396H522.274V49.8137H549.08V75.6396H572.653V97.3182H549.08L549.076 97.3224Z" fill="#2E4765"/>
<path d="M611.238 175.08C603.125 170.62 596.757 164.305 592.133 156.135C587.505 147.966 585.193 138.541 585.193 127.858C585.193 117.175 587.568 107.751 592.322 99.5817C597.076 91.4163 603.566 85.1015 611.809 80.6374C620.048 76.1775 629.233 73.9475 639.376 73.9475C649.519 73.9475 658.7 76.1816 666.943 80.6374C675.177 85.1015 681.676 91.4163 686.43 99.5817C691.184 107.751 693.559 117.18 693.559 127.858C693.559 138.537 691.117 147.966 686.241 156.135C681.361 164.305 674.77 170.62 666.472 175.08C658.17 179.539 648.889 181.769 638.624 181.769C628.359 181.769 619.359 179.539 611.25 175.08H611.238ZM652.205 155.285C656.451 152.959 659.839 149.475 662.378 144.823C664.912 140.175 666.182 134.519 666.182 127.858C666.182 117.934 663.55 110.298 658.292 104.954C653.033 99.615 646.602 96.9432 638.998 96.9432C631.393 96.9432 625.025 99.615 619.893 104.954C614.76 110.298 612.192 117.934 612.192 127.858C612.192 137.783 614.693 145.423 619.699 150.763C624.706 156.106 631.011 158.774 638.615 158.774C643.428 158.774 647.96 157.615 652.209 155.285H652.205Z" fill="#2E4765"/>
<path d="M753.148 78.8492C758.663 75.7106 764.964 74.135 772.064 74.135V101.845H765.032C756.667 101.845 750.361 103.796 746.116 107.689C741.87 111.586 739.748 118.372 739.748 128.046V180.073H713.131V75.6397H739.748V91.8497C743.169 86.3227 747.638 81.9878 753.148 78.8409V78.8492Z" fill="#2E4765"/>
<path d="M791.737 58.7711C788.63 55.8201 787.079 52.1438 787.079 47.7422C787.079 43.3406 788.63 39.6685 791.737 36.7132C794.839 33.7622 798.74 32.2825 803.427 32.2825C808.114 32.2825 812.01 33.7622 815.117 36.7132C818.219 39.6685 819.774 43.3448 819.774 47.7422C819.774 52.1396 818.219 55.8201 815.117 58.7711C812.01 61.7264 808.114 63.2019 803.427 63.2019C798.74 63.2019 794.839 61.7264 791.737 58.7711ZM816.546 75.6438V180.077H789.929V75.6438H816.546Z" fill="#2E4765"/>
<path d="M867.114 158.398H914.072V180.077H836.891V158.778L882.898 97.3265H837.084V75.6479H913.504V96.9514L867.118 158.403L867.114 158.398Z" fill="#2E4765"/>
<path d="M1015.96 155.001H963.114L954.371 180.073H926.426L974.14 48.3091H1005.13L1052.85 180.073H1024.71L1015.97 155.001H1015.96ZM1008.74 133.89L989.537 78.845L970.336 133.89H1008.73H1008.74Z" fill="#2E4765"/>
<path d="M1097.32 75.6438V180.077H1070.71V75.6438H1097.32Z" fill="#2E4765"/>
<path d="M1132.45 16.9769L1097.11 57.1455L1090.32 64.8691C1086.57 69.1289 1080.04 69.5666 1075.74 65.8528L1067.96 59.1212L1052.29 45.5622C1047.99 41.8442 1047.55 35.3752 1051.3 31.107C1055.04 26.8471 1061.57 26.4095 1065.87 30.1233L1081.54 43.6823L1116.88 3.50961C1120.64 -0.750253 1127.16 -1.18791 1131.46 2.52592C1135.76 6.24392 1136.21 12.7129 1132.45 16.9811V16.9769Z" fill="#2E4765"/>
</g>
<defs>
<clipPath id="clip0_2085_167">
<rect width="1135" height="221" fill="white"/>
</clipPath>
</defs>
</svg>
