<?xml version="1.0" encoding="UTF-8"?>
<svg id="Camada_2" data-name="Camada 2" xmlns="http://www.w3.org/2000/svg" viewBox="0 0 1726.29 356.82">
  <g id="Camada_1-2" data-name="Camada 1">
    <g id="AutorizAi">
      <g>
        <path d="M174.29,304.28h-102.87l-17.02,49.22H0L92.88,94.83h60.32l92.88,258.66h-54.77l-17.02-49.22ZM160.23,262.83l-37.37-108.05-37.37,108.05h74.75Z"/>
        <path d="M474.39,148.49v205h-52.18v-25.9c-6.66,8.88-15.36,15.85-26.09,20.91-10.73,5.05-22.39,7.59-34.97,7.59-16.04,0-30.22-3.39-42.55-10.18-12.34-6.78-22.02-16.77-29.05-29.97-7.03-13.19-10.55-28.92-10.55-47.18v-120.26h51.81v112.86c0,16.28,4.07,28.81,12.21,37.56,8.14,8.76,19.24,13.14,33.3,13.14s25.53-4.38,33.67-13.14c8.14-8.75,12.21-21.28,12.21-37.56v-112.86h52.18Z"/>
        <path d="M585.77,191.05v99.17c0,6.91,1.67,11.9,5,14.99,3.33,3.09,8.94,4.63,16.84,4.63h24.05v43.66h-32.56c-43.67,0-65.5-21.21-65.5-63.65v-98.8h-24.42v-42.56h24.42v-50.7h52.18v50.7h45.89v42.56h-45.89Z"/>
        <path d="M706.77,343.69c-15.79-8.75-28.19-21.15-37.19-37.19-9.01-16.03-13.51-34.54-13.51-55.51s4.63-39.47,13.88-55.51c9.25-16.03,21.89-28.43,37.93-37.19,16.03-8.75,33.92-13.14,53.66-13.14s37.62,4.38,53.66,13.14c16.03,8.76,28.68,21.16,37.93,37.19,9.25,16.04,13.88,34.54,13.88,55.51s-4.75,39.47-14.25,55.51c-9.5,16.04-22.33,28.44-38.49,37.19-16.16,8.76-34.23,13.14-54.21,13.14s-37.5-4.38-53.29-13.14ZM786.52,304.83c8.26-4.56,14.86-11.41,19.8-20.54,4.93-9.12,7.4-20.23,7.4-33.3,0-19.48-5.12-34.47-15.36-44.96-10.24-10.48-22.76-15.73-37.56-15.73s-27.2,5.24-37.19,15.73c-9.99,10.49-14.99,25.48-14.99,44.96s4.87,34.48,14.62,44.96c9.74,10.49,22.02,15.73,36.82,15.73,9.37,0,18.19-2.28,26.46-6.85Z"/>
        <path d="M983,154.78c10.73-6.16,23-9.25,36.82-9.25v54.4h-13.69c-16.28,0-28.56,3.83-36.82,11.47-8.27,7.65-12.4,20.97-12.4,39.96v102.13h-51.81v-205h51.81v31.82c6.66-10.85,15.36-19.36,26.09-25.53Z"/>
        <path d="M1058.12,115.37c-6.05-5.79-9.07-13.01-9.07-21.65s3.02-15.85,9.07-21.65c6.04-5.79,13.63-8.7,22.76-8.7s16.71,2.9,22.76,8.7c6.04,5.8,9.07,13.02,9.07,21.65s-3.03,15.85-9.07,21.65c-6.05,5.8-13.63,8.7-22.76,8.7s-16.72-2.9-22.76-8.7ZM1106.41,148.49v205h-51.81v-205h51.81Z"/>
        <path d="M1204.84,310.94h91.4v42.55h-150.24v-41.81l89.55-120.63h-89.18v-42.56h148.76v41.82l-90.29,120.63Z"/>
        <path d="M1494.58,304.28h-102.87l-17.02,49.22h-54.4l92.88-258.66h60.32l92.88,258.66h-54.77l-17.02-49.22ZM1480.52,262.83l-37.37-108.05-37.38,108.05h74.75Z"/>
        <path d="M1652.95,148.49v205h-51.81v-205h51.81Z"/>
      </g>
      <path d="M1721.33,33.33l-68.8,78.85-13.22,15.16c-7.3,8.36-20,9.22-28.37,1.93l-15.14-13.22-30.5-26.62c-8.36-7.3-9.22-20-1.93-28.37,7.3-8.36,20-9.22,28.37-1.93l30.5,26.62,68.79-78.86c7.31-8.36,20.01-9.22,28.37-1.93,8.37,7.3,9.24,20,1.93,28.37Z"/>
    </g>
  </g>
</svg>