<?xml version="1.0" encoding="UTF-8"?>
<svg id="Camada_2" data-name="Camada 2" xmlns="http://www.w3.org/2000/svg" viewBox="0 0 2700.12 530.21">
  <g id="Camada_1-2" data-name="Camada 1">
    <g id="LOGO_HORIZONTAL" data-name="LOGO HORIZONTAL">
      <g id="Icone">
        <polygon points="405.98 467.36 405.98 403.24 405.58 276.61 295.3 212.94 185.43 275.9 185.85 402.54 185.85 466.42 130.3 434.36 129.68 243.71 295.09 148.92 461.12 244.78 461.73 435.42 405.98 467.36"/>
        <polygon points="353.5 433.32 353.5 497.44 296.32 530.21 238.33 496.73 238.33 432.84 296.12 466.2 353.5 433.32"/>
        <polygon points="352.62 372.42 295.91 404.92 239 372.06 238.8 306.7 295.5 274.22 352.41 307.07 352.62 372.42"/>
        <path d="M590.33,170.72l-93.72,53.71-201.65-116.42-200.9,115.14-26.3-15.19v92.78c10.12,2.68,17.56,11.9,17.56,22.87v48.44H24.09v-48.44c0-10.89,7.36-20.07,17.37-22.83v-108.02L0,168.84,294.62,0l295.71,170.72Z"/>
      </g>
      <g id="AutorizAi">
        <g>
          <path d="M803.34,371.87h-125.73l-20.8,60.15h-66.48l113.51-316.12h73.72l113.51,316.12h-66.93l-20.8-60.15ZM786.15,321.22l-45.68-132.06-45.68,132.06h91.35Z"/>
          <path d="M1170.11,181.48v250.55h-63.77v-31.66c-8.14,10.85-18.77,19.38-31.88,25.55-13.12,6.18-27.36,9.27-42.74,9.27-19.6,0-36.94-4.14-52.01-12.44-15.08-8.29-26.91-20.5-35.5-36.63-8.59-16.13-12.89-35.35-12.89-57.66v-146.98h63.32v137.94c0,19.9,4.98,35.2,14.92,45.9,9.95,10.7,23.52,16.05,40.7,16.05s31.21-5.35,41.16-16.05c9.95-10.7,14.92-26,14.92-45.9v-137.94h63.77Z"/>
          <path d="M1306.23,233.49v121.2c0,8.44,2.04,14.55,6.11,18.31,4.07,3.77,10.92,5.65,20.58,5.65h29.4v53.37h-39.8c-53.37,0-80.05-25.93-80.05-77.79v-120.75h-29.85v-52.01h29.85v-61.96h63.77v61.96h56.08v52.01h-56.08Z"/>
          <path d="M1454.11,420.04c-19.3-10.7-34.45-25.85-45.45-45.45-11.01-19.6-16.51-42.21-16.51-67.84s5.65-48.24,16.96-67.84c11.31-19.59,26.75-34.74,46.36-45.45,19.6-10.7,41.45-16.05,65.58-16.05s45.97,5.36,65.58,16.05c19.59,10.71,35.05,25.86,46.36,45.45,11.31,19.6,16.96,42.22,16.96,67.84s-5.81,48.24-17.41,67.84c-11.61,19.6-27.29,34.75-47.03,45.45-19.75,10.7-41.83,16.05-66.25,16.05s-45.83-5.35-65.12-16.05ZM1551.57,372.55c10.1-5.58,18.16-13.94,24.2-25.1,6.03-11.15,9.05-24.72,9.05-40.7,0-23.81-6.26-42.13-18.77-54.95-12.51-12.81-27.81-19.22-45.9-19.22s-33.24,6.41-45.45,19.22c-12.21,12.82-18.32,31.14-18.32,54.95s5.95,42.14,17.86,54.95c11.91,12.82,26.91,19.22,45,19.22,11.45,0,22.23-2.78,32.34-8.37Z"/>
          <path d="M1791.71,189.17c13.12-7.53,28.11-11.31,45-11.31v66.48h-16.73c-19.9,0-34.9,4.68-45,14.02-10.1,9.35-15.15,25.63-15.15,48.84v124.82h-63.32v-250.55h63.32v38.89c8.14-13.26,18.77-23.66,31.88-31.21Z"/>
          <path d="M1883.51,141c-7.39-7.08-11.08-15.9-11.08-26.46s3.69-19.37,11.08-26.46c7.38-7.08,16.66-10.63,27.81-10.63s20.42,3.55,27.81,10.63c7.38,7.09,11.08,15.91,11.08,26.46s-3.7,19.38-11.08,26.46c-7.39,7.09-16.66,10.63-27.81,10.63s-20.43-3.54-27.81-10.63ZM1942.53,181.48v250.55h-63.32v-250.55h63.32Z"/>
          <path d="M2062.83,380.02h111.71v52.01h-183.61v-51.1l109.45-147.43h-108.99v-52.01h181.8v51.11l-110.35,147.43Z"/>
          <path d="M2416.94,371.87h-125.73l-20.8,60.15h-66.48l113.51-316.12h73.72l113.52,316.12h-66.93l-20.8-60.15ZM2399.75,321.22l-45.68-132.06-45.68,132.06h91.35Z"/>
          <path d="M2610.49,181.48v250.55h-63.32v-250.55h63.32Z"/>
        </g>
        <path d="M2694.06,40.73l-84.09,96.37-16.15,18.53c-8.92,10.22-24.44,11.27-34.68,2.36l-18.51-16.15-37.28-32.53c-10.22-8.92-11.27-24.44-2.36-34.68,8.92-10.22,24.44-11.27,34.68-2.36l37.28,32.53,84.07-96.38c8.93-10.22,24.46-11.27,34.68-2.36,10.23,8.92,11.29,24.44,2.36,34.68Z"/>
      </g>
    </g>
  </g>
</svg>