<?xml version="1.0" encoding="UTF-8"?>
<svg id="Camada_2" data-name="Camada 2" xmlns="http://www.w3.org/2000/svg" viewBox="0 0 988.39 887.73">
  <g id="Camada_1-2" data-name="Camada 1">
    <g id="ICONE">
      <polygon points="679.74 782.51 679.74 675.15 679.07 463.12 494.42 356.52 310.47 461.94 311.16 673.97 311.16 780.94 218.16 727.26 217.13 408.04 494.07 249.33 772.05 409.83 773.08 729.02 679.74 782.51"/>
      <polygon points="591.86 725.51 591.86 832.87 496.14 887.73 399.03 831.67 399.03 724.7 495.79 780.57 591.86 725.51"/>
      <polygon points="590.39 623.55 495.45 677.97 400.16 622.94 399.82 513.51 494.76 459.12 590.05 514.13 590.39 623.55"/>
      <path d="M988.39,285.83l-156.92,89.93-337.62-194.92-336.37,192.78-44.03-25.43v155.35c16.94,4.49,29.41,19.93,29.41,38.29v81.1H40.33v-81.1c0-18.24,12.32-33.6,29.09-38.22v-180.85L0,282.69,493.29,0l495.11,285.83Z"/>
    </g>
  </g>
</svg>