<?xml version="1.0" encoding="UTF-8"?>
<svg id="Camada_2" data-name="Camada 2" xmlns="http://www.w3.org/2000/svg" viewBox="0 0 766.3 845.87">
  <g id="Camada_1-2" data-name="Camada 1">
    <g id="LOGO_VERTICAL" data-name="LOGO VERTICAL">
      <g id="Icone">
        <polygon points="527.22 606.12 527.22 522.96 526.7 358.73 383.67 276.16 241.19 357.81 241.72 522.04 241.72 604.9 169.69 563.32 168.89 316.06 383.41 193.13 598.72 317.45 599.52 564.69 527.22 606.12"/>
        <polygon points="459.15 561.97 459.15 645.13 385 687.62 309.79 644.2 309.79 561.34 384.74 604.62 459.15 561.97"/>
        <polygon points="458.01 482.99 384.47 525.14 310.66 482.52 310.4 397.76 383.94 355.63 457.74 398.24 458.01 482.99"/>
        <path d="M766.3,221.4l-121.55,69.66-261.52-150.98L122.69,289.41l-34.11-19.7v120.33c13.12,3.48,22.78,15.44,22.78,29.66v62.82H31.94v-62.82c0-14.13,9.54-26.03,22.53-29.6v-140.08L.7,218.97,382.8,0l383.5,221.4Z"/>
      </g>
      <g id="AutorizAi">
        <g>
          <path d="M77.3,822.57H31.67l-7.55,21.83H0l41.19-114.71h26.75l41.19,114.71h-24.29l-7.55-21.83ZM71.06,804.19l-16.58-47.92-16.58,47.92h33.15Z"/>
          <path d="M210.39,753.48v90.92h-23.14v-11.49c-2.95,3.94-6.81,7.03-11.57,9.27-4.76,2.24-9.93,3.36-15.51,3.36-7.11,0-13.4-1.5-18.87-4.51-5.47-3.01-9.76-7.44-12.88-13.29-3.12-5.85-4.68-12.83-4.68-20.92v-53.34h22.98v50.05c0,7.22,1.81,12.78,5.42,16.66,3.61,3.88,8.53,5.83,14.77,5.83s11.32-1.94,14.93-5.83c3.61-3.88,5.42-9.44,5.42-16.66v-50.05h23.14Z"/>
          <path d="M259.78,772.35v43.98c0,3.06.74,5.28,2.22,6.65,1.48,1.37,3.96,2.05,7.47,2.05h10.67v19.36h-14.44c-19.37,0-29.05-9.41-29.05-28.23v-43.82h-10.83v-18.87h10.83v-22.48h23.14v22.48h20.35v18.87h-20.35Z"/>
          <path d="M313.45,840.05c-7-3.88-12.5-9.38-16.49-16.49-3.99-7.11-5.99-15.32-5.99-24.62s2.05-17.5,6.15-24.62c4.1-7.11,9.71-12.61,16.82-16.49,7.11-3.88,15.04-5.83,23.8-5.83s16.68,1.94,23.8,5.83c7.11,3.89,12.72,9.38,16.82,16.49,4.1,7.11,6.15,15.32,6.15,24.62s-2.11,17.51-6.32,24.62c-4.21,7.11-9.9,12.61-17.07,16.49-7.17,3.88-15.18,5.83-24.04,5.83s-16.63-1.94-23.63-5.83ZM348.81,822.81c3.66-2.02,6.59-5.06,8.78-9.11,2.19-4.05,3.28-8.97,3.28-14.77,0-8.64-2.27-15.29-6.81-19.94-4.54-4.65-10.09-6.97-16.66-6.97s-12.06,2.33-16.49,6.97c-4.43,4.65-6.65,11.3-6.65,19.94s2.16,15.29,6.48,19.94c4.32,4.65,9.76,6.97,16.33,6.97,4.16,0,8.07-1.01,11.73-3.04Z"/>
          <path d="M435.95,756.27c4.76-2.73,10.2-4.1,16.33-4.1v24.12h-6.07c-7.22,0-12.66,1.7-16.33,5.09-3.67,3.39-5.5,9.3-5.5,17.72v45.29h-22.98v-90.92h22.98v14.11c2.95-4.81,6.81-8.59,11.57-11.32Z"/>
          <path d="M469.27,738.79c-2.68-2.57-4.02-5.77-4.02-9.6s1.34-7.03,4.02-9.6c2.68-2.57,6.04-3.86,10.09-3.86s7.41,1.29,10.09,3.86c2.68,2.57,4.02,5.77,4.02,9.6s-1.34,7.03-4.02,9.6c-2.68,2.57-6.05,3.86-10.09,3.86s-7.41-1.28-10.09-3.86ZM490.68,753.48v90.92h-22.98v-90.92h22.98Z"/>
          <path d="M534.34,825.52h40.54v18.87h-66.63v-18.54l39.72-53.5h-39.55v-18.87h65.97v18.54l-40.04,53.5Z"/>
          <path d="M662.83,822.57h-45.62l-7.55,21.83h-24.12l41.19-114.71h26.75l41.19,114.71h-24.29l-7.55-21.83ZM656.6,804.19l-16.57-47.92-16.58,47.92h33.15Z"/>
          <path d="M733.07,753.48v90.92h-22.98v-90.92h22.98Z"/>
        </g>
        <path d="M763.39,702.4l-30.51,34.97-5.86,6.72c-3.24,3.71-8.87,4.09-12.58.86l-6.72-5.86-13.53-11.81c-3.71-3.24-4.09-8.87-.86-12.58,3.24-3.71,8.87-4.09,12.58-.86l13.53,11.81,30.51-34.98c3.24-3.71,8.88-4.09,12.58-.86,3.71,3.24,4.1,8.87.86,12.58Z"/>
      </g>
    </g>
  </g>
</svg>